<svg xmlns="http://www.w3.org/2000/svg" xmlns:xlink="http://www.w3.org/1999/xlink" width="400" zoomAndPan="magnify" viewBox="0 0 300 227.249992" height="303" preserveAspectRatio="xMidYMid meet" version="1.0"><defs><clipPath id="dc460952bd"><path d="M 0.492188 0.257812 L 299.503906 0.257812 L 299.503906 226.503906 L 0.492188 226.503906 Z M 0.492188 0.257812 " clip-rule="nonzero"/></clipPath></defs><g clip-path="url(#dc460952bd)"><path fill="#000000" d="M 297.925781 35.664062 C 291.285156 36.089844 284.742188 37.128906 278.296875 38.785156 C 280.222656 37.214844 281.875 35.402344 283.257812 33.339844 C 284.640625 31.277344 285.695312 29.054688 286.414062 26.679688 C 286.839844 25.015625 287.089844 23.328125 287.160156 21.609375 C 287.230469 19.894531 287.121094 18.191406 286.832031 16.5 C 286.542969 14.808594 286.082031 13.164062 285.449219 11.570312 C 284.8125 9.976562 284.019531 8.464844 283.066406 7.035156 C 282.21875 5.441406 281.101562 4.0625 279.71875 2.902344 C 278.335938 1.742188 276.789062 0.882812 275.070312 0.320312 C 273.261719 0.316406 271.511719 0.648438 269.832031 1.324219 C 268.148438 2 266.65625 2.964844 265.351562 4.222656 C 264.007812 5.289062 262.789062 6.484375 261.695312 7.808594 C 260.605469 9.132812 259.660156 10.558594 258.871094 12.082031 C 258.078125 13.605469 257.453125 15.195312 256.992188 16.851562 C 256.535156 18.507812 256.257812 20.191406 256.152344 21.90625 C 255.796875 32.164062 262.582031 39.796875 265.828125 42.851562 C 253.671875 47.769531 242.699219 54.597656 232.910156 63.332031 C 234.046875 60.808594 234.757812 58.171875 235.039062 55.414062 C 235.320312 52.660156 235.160156 49.933594 234.554688 47.230469 C 234.101562 45.578125 233.476562 43.988281 232.6875 42.464844 C 231.898438 40.941406 230.957031 39.519531 229.867188 38.195312 C 228.78125 36.867188 227.5625 35.671875 226.222656 34.605469 C 224.882812 33.535156 223.445312 32.621094 221.910156 31.855469 C 220.378906 30.894531 218.726562 30.253906 216.949219 29.933594 C 215.171875 29.613281 213.402344 29.640625 211.632812 30.007812 C 210.058594 30.90625 208.707031 32.066406 207.585938 33.492188 C 206.460938 34.917969 205.648438 36.503906 205.144531 38.246094 C 204.507812 39.839844 204.042969 41.484375 203.753906 43.175781 C 203.460938 44.867188 203.351562 46.570312 203.417969 48.285156 C 203.488281 50 203.734375 51.691406 204.160156 53.351562 C 204.582031 55.015625 205.175781 56.617188 205.9375 58.15625 C 210.609375 67.023438 219.957031 70.332031 224.429688 71.445312 C 217.445312 78.976562 211.097656 87.007812 205.378906 95.542969 C 199.664062 104.082031 194.652344 113.011719 190.34375 122.34375 C 190.265625 117.625 190.179688 112.910156 190.058594 108.269531 L 189.988281 105.515625 C 189.925781 103.238281 189.863281 100.976562 189.785156 98.714844 C 189.761719 97.972656 189.707031 97.234375 189.613281 96.5 C 189.523438 95.765625 189.398438 95.035156 189.238281 94.3125 C 189.082031 93.589844 188.886719 92.875 188.664062 92.171875 C 188.4375 91.464844 188.183594 90.769531 187.894531 90.089844 C 187.605469 89.40625 187.285156 88.738281 186.933594 88.085938 C 186.585938 87.4375 186.203125 86.800781 185.796875 86.183594 C 185.386719 85.566406 184.949219 84.96875 184.484375 84.394531 C 184.023438 83.816406 183.53125 83.261719 183.015625 82.730469 C 182.503906 82.199219 181.964844 81.695312 181.402344 81.210938 C 180.839844 80.730469 180.257812 80.277344 179.652344 79.847656 C 179.050781 79.421875 178.425781 79.023438 177.785156 78.652344 C 177.144531 78.285156 176.488281 77.945312 175.816406 77.636719 C 175.144531 77.328125 174.460938 77.050781 173.761719 76.804688 C 173.066406 76.558594 172.355469 76.34375 171.640625 76.164062 C 170.921875 75.984375 170.199219 75.839844 169.46875 75.726562 C 168.738281 75.613281 168.003906 75.535156 167.265625 75.488281 L 167.265625 60.851562 C 167.265625 60.328125 167.210938 59.808594 167.109375 59.296875 C 167.007812 58.785156 166.855469 58.285156 166.65625 57.804688 C 166.457031 57.320312 166.210938 56.863281 165.921875 56.425781 C 165.632812 55.992188 165.300781 55.589844 164.933594 55.222656 C 164.5625 54.851562 164.164062 54.519531 163.730469 54.230469 C 163.292969 53.941406 162.835938 53.695312 162.355469 53.492188 C 161.871094 53.292969 161.375 53.140625 160.863281 53.039062 C 160.351562 52.9375 159.835938 52.886719 159.3125 52.886719 L 158.128906 52.886719 L 158.128906 32.523438 C 158.128906 31.992188 158.074219 31.464844 157.972656 30.945312 C 157.867188 30.425781 157.714844 29.917969 157.511719 29.425781 C 157.308594 28.9375 157.058594 28.46875 156.765625 28.027344 C 156.46875 27.585938 156.132812 27.175781 155.757812 26.800781 C 155.382812 26.425781 154.976562 26.089844 154.535156 25.796875 C 154.09375 25.5 153.628906 25.25 153.136719 25.046875 C 152.648438 24.84375 152.144531 24.691406 151.621094 24.585938 C 151.101562 24.480469 150.578125 24.429688 150.046875 24.429688 L 146.382812 24.429688 C 145.851562 24.429688 145.328125 24.480469 144.808594 24.585938 C 144.285156 24.691406 143.78125 24.84375 143.292969 25.046875 C 142.800781 25.25 142.335938 25.5 141.894531 25.796875 C 141.453125 26.089844 141.046875 26.425781 140.671875 26.800781 C 140.296875 27.175781 139.960938 27.585938 139.664062 28.027344 C 139.371094 28.46875 139.121094 28.9375 138.917969 29.425781 C 138.714844 29.917969 138.5625 30.425781 138.457031 30.945312 C 138.355469 31.464844 138.300781 31.992188 138.300781 32.523438 L 138.300781 52.894531 L 137.117188 52.894531 C 136.597656 52.898438 136.078125 52.949219 135.566406 53.050781 C 135.054688 53.152344 134.558594 53.304688 134.078125 53.503906 C 133.597656 53.703125 133.136719 53.949219 132.703125 54.238281 C 132.269531 54.527344 131.871094 54.859375 131.5 55.226562 C 131.132812 55.597656 130.800781 56 130.511719 56.433594 C 130.222656 56.867188 129.976562 57.324219 129.777344 57.808594 C 129.574219 58.289062 129.425781 58.785156 129.320312 59.300781 C 129.21875 59.8125 129.167969 60.328125 129.164062 60.851562 L 129.164062 75.480469 C 128.429688 75.523438 127.695312 75.601562 126.964844 75.714844 C 126.234375 75.828125 125.507812 75.976562 124.792969 76.15625 C 124.074219 76.335938 123.367188 76.550781 122.671875 76.796875 C 121.972656 77.042969 121.289062 77.320312 120.617188 77.628906 C 119.945312 77.9375 119.289062 78.277344 118.652344 78.648438 C 118.011719 79.015625 117.386719 79.414062 116.785156 79.84375 C 116.179688 80.269531 115.597656 80.726562 115.039062 81.207031 C 114.476562 81.6875 113.9375 82.195312 113.421875 82.726562 C 112.910156 83.257812 112.417969 83.8125 111.957031 84.386719 C 111.492188 84.964844 111.054688 85.5625 110.648438 86.175781 C 110.238281 86.792969 109.859375 87.429688 109.507812 88.082031 C 109.160156 88.734375 108.839844 89.398438 108.550781 90.082031 C 108.261719 90.761719 108.007812 91.457031 107.78125 92.164062 C 107.558594 92.867188 107.367188 93.582031 107.207031 94.304688 C 107.050781 95.027344 106.925781 95.757812 106.832031 96.492188 C 106.742188 97.226562 106.683594 97.964844 106.660156 98.703125 C 106.578125 101.199219 106.511719 103.695312 106.441406 106.210938 L 106.390625 108.257812 C 105.75 132.355469 105.683594 157.480469 106.203125 182.941406 C 106.222656 183.933594 106.25 184.9375 106.273438 185.933594 C 99.664062 182.230469 93.476562 177.921875 87.703125 173.007812 C 87.640625 172.675781 87.570312 172.335938 87.492188 172 C 91.183594 167.988281 103.332031 151.886719 85.417969 129.773438 C 67.59375 107.757812 36.789062 95.820312 36.480469 95.707031 C 36.304688 95.640625 36.125 95.613281 35.941406 95.625 C 35.757812 95.636719 35.582031 95.683594 35.417969 95.769531 C 35.253906 95.855469 35.113281 95.972656 34.996094 96.117188 C 34.882812 96.261719 34.804688 96.425781 34.757812 96.605469 C 34.527344 97.519531 29.410156 118.59375 34.214844 138.804688 C 23.449219 137.246094 12.636719 136.777344 1.773438 137.40625 C 1.589844 137.421875 1.414062 137.472656 1.253906 137.566406 C 1.089844 137.65625 0.953125 137.773438 0.839844 137.921875 C 0.730469 138.074219 0.652344 138.238281 0.613281 138.421875 C 0.574219 138.601562 0.570312 138.785156 0.609375 138.96875 C 0.96875 140.714844 9.734375 181.980469 38.226562 195.261719 C 41.699219 196.984375 45.320312 198.308594 49.089844 199.234375 C 52.855469 200.160156 56.675781 200.664062 60.554688 200.75 C 62.84375 200.796875 65.113281 200.613281 67.363281 200.199219 C 69.617188 199.785156 71.804688 199.148438 73.925781 198.292969 C 76.046875 197.433594 78.0625 196.371094 79.972656 195.101562 C 81.878906 193.835938 83.640625 192.390625 85.257812 190.761719 C 92.234375 192.621094 99.308594 193.941406 106.484375 194.722656 C 106.65625 201.402344 106.847656 208.113281 107.105469 214.90625 C 107.136719 215.703125 107.242188 216.492188 107.425781 217.269531 C 107.605469 218.046875 107.863281 218.800781 108.1875 219.53125 C 108.515625 220.257812 108.910156 220.949219 109.371094 221.601562 C 109.828125 222.253906 110.347656 222.859375 110.921875 223.410156 C 111.5 223.964844 112.121094 224.457031 112.792969 224.886719 C 113.464844 225.320312 114.167969 225.683594 114.910156 225.980469 C 115.648438 226.277344 116.414062 226.5 117.195312 226.648438 C 117.980469 226.800781 118.769531 226.871094 119.566406 226.867188 L 176.871094 226.867188 C 177.667969 226.871094 178.457031 226.800781 179.242188 226.648438 C 180.027344 226.5 180.789062 226.277344 181.527344 225.980469 C 182.269531 225.683594 182.976562 225.320312 183.644531 224.886719 C 184.316406 224.457031 184.9375 223.964844 185.515625 223.410156 C 186.089844 222.859375 186.609375 222.253906 187.070312 221.601562 C 187.527344 220.949219 187.921875 220.257812 188.25 219.53125 C 188.574219 218.800781 188.832031 218.046875 189.011719 217.269531 C 189.195312 216.492188 189.300781 215.703125 189.332031 214.90625 C 189.636719 206.949219 189.878906 199.058594 190.058594 191.242188 C 190.128906 188.46875 190.191406 185.703125 190.246094 182.945312 C 190.621094 164.421875 190.683594 146.117188 190.449219 128.269531 C 194.695312 118.824219 199.550781 109.703125 205.019531 100.910156 C 206.972656 105.074219 212.03125 113.652344 221.636719 116.515625 C 223.675781 117.128906 225.757812 117.433594 227.886719 117.433594 C 230.261719 117.390625 232.585938 117.03125 234.863281 116.347656 C 237.140625 115.664062 239.28125 114.6875 241.289062 113.414062 C 242.890625 112.582031 244.28125 111.484375 245.457031 110.113281 C 246.632812 108.742188 247.511719 107.199219 248.09375 105.488281 C 248.125 103.671875 247.8125 101.917969 247.15625 100.222656 C 246.503906 98.527344 245.554688 97.019531 244.3125 95.699219 C 243.265625 94.339844 242.085938 93.105469 240.777344 91.996094 C 239.472656 90.886719 238.0625 89.925781 236.554688 89.113281 C 235.042969 88.300781 233.46875 87.652344 231.820312 87.175781 C 230.175781 86.695312 228.5 86.390625 226.789062 86.265625 C 224.144531 86.203125 221.550781 86.542969 219.011719 87.289062 C 216.472656 88.039062 214.109375 89.15625 211.917969 90.640625 C 216.71875 83.941406 222.007812 77.648438 227.785156 71.773438 C 227.84375 71.722656 227.902344 71.671875 227.949219 71.613281 C 227.992188 71.585938 228.027344 71.558594 228.066406 71.527344 C 228.089844 71.496094 228.152344 71.421875 228.246094 71.308594 C 232.773438 66.75 237.621094 62.558594 242.78125 58.738281 C 242.703125 63.460938 243.523438 73.109375 250.664062 79.84375 C 251.773438 80.851562 252.964844 81.75 254.246094 82.53125 C 255.527344 83.316406 256.867188 83.96875 258.273438 84.5 C 259.675781 85.027344 261.117188 85.417969 262.59375 85.671875 C 264.070312 85.925781 265.5625 86.039062 267.058594 86.007812 C 267.914062 86.007812 268.761719 85.96875 269.613281 85.882812 C 271.417969 85.859375 273.152344 85.5 274.820312 84.804688 C 276.484375 84.105469 277.960938 83.121094 279.246094 81.851562 C 280.085938 80.238281 280.589844 78.53125 280.761719 76.722656 C 280.933594 74.914062 280.761719 73.140625 280.242188 71.402344 C 279.910156 69.714844 279.410156 68.085938 278.738281 66.507812 C 278.0625 64.925781 277.234375 63.4375 276.246094 62.03125 C 275.261719 60.628906 274.140625 59.34375 272.882812 58.175781 C 271.625 57.007812 270.261719 55.984375 268.789062 55.105469 C 266.246094 53.753906 263.550781 52.855469 260.707031 52.40625 C 257.863281 51.957031 255.019531 51.988281 252.1875 52.492188 C 257.460938 49.351562 262.96875 46.699219 268.714844 44.535156 L 268.746094 44.535156 L 268.964844 44.453125 C 278.375 40.960938 288.089844 38.902344 298.105469 38.277344 C 298.277344 38.265625 298.441406 38.222656 298.59375 38.144531 C 298.75 38.070312 298.882812 37.964844 298.996094 37.835938 C 299.109375 37.707031 299.191406 37.5625 299.25 37.398438 C 299.304688 37.234375 299.324219 37.066406 299.316406 36.894531 C 299.296875 36.722656 299.25 36.5625 299.171875 36.40625 C 299.09375 36.253906 298.992188 36.121094 298.863281 36.007812 C 298.734375 35.890625 298.585938 35.804688 298.425781 35.746094 C 298.265625 35.6875 298.097656 35.660156 297.925781 35.664062 Z M 84.203125 187.792969 C 79.109375 186.40625 73.882812 184.734375 68.628906 182.796875 L 63.84375 159.894531 C 63.804688 159.730469 63.734375 159.582031 63.636719 159.445312 C 63.539062 159.308594 63.421875 159.195312 63.277344 159.105469 C 63.136719 159.015625 62.984375 158.953125 62.820312 158.925781 C 62.652344 158.894531 62.488281 158.894531 62.324219 158.929688 C 62.160156 158.964844 62.007812 159.027344 61.867188 159.117188 C 61.730469 159.210938 61.609375 159.328125 61.515625 159.464844 C 61.421875 159.605469 61.355469 159.753906 61.316406 159.917969 C 61.28125 160.082031 61.277344 160.246094 61.304688 160.414062 L 65.753906 181.703125 C 58.828125 179.019531 52.089844 175.921875 45.542969 172.410156 L 39.363281 150.683594 C 39.3125 150.519531 39.230469 150.375 39.125 150.246094 C 39.015625 150.117188 38.886719 150.011719 38.738281 149.929688 C 38.589844 149.851562 38.433594 149.800781 38.265625 149.785156 C 38.097656 149.765625 37.929688 149.78125 37.769531 149.828125 C 37.605469 149.871094 37.457031 149.949219 37.324219 150.050781 C 37.191406 150.15625 37.085938 150.28125 37 150.429688 C 36.917969 150.574219 36.863281 150.734375 36.839844 150.898438 C 36.816406 151.066406 36.828125 151.234375 36.867188 151.398438 L 42.351562 170.675781 C 32.898438 165.449219 24.234375 159.128906 16.367188 151.722656 C 16.246094 151.59375 16.101562 151.492188 15.9375 151.417969 C 15.777344 151.347656 15.605469 151.3125 15.425781 151.308594 C 15.25 151.308594 15.078125 151.34375 14.914062 151.410156 C 14.75 151.480469 14.605469 151.578125 14.480469 151.707031 C 14.359375 151.835938 14.265625 151.984375 14.203125 152.148438 C 14.140625 152.316406 14.113281 152.488281 14.121094 152.667969 C 14.128906 152.847656 14.171875 153.015625 14.25 153.175781 C 14.328125 153.335938 14.433594 153.476562 14.566406 153.59375 C 22.136719 160.726562 30.445312 166.859375 39.492188 171.992188 L 24.878906 171.957031 C 24.707031 171.957031 24.542969 171.988281 24.382812 172.054688 C 24.222656 172.121094 24.082031 172.214844 23.960938 172.335938 C 23.839844 172.460938 23.746094 172.601562 23.679688 172.757812 C 23.613281 172.917969 23.582031 173.085938 23.582031 173.257812 C 23.582031 173.429688 23.613281 173.59375 23.679688 173.753906 C 23.746094 173.914062 23.839844 174.054688 23.960938 174.175781 C 24.082031 174.296875 24.222656 174.390625 24.382812 174.457031 C 24.542969 174.523438 24.707031 174.558594 24.878906 174.558594 L 44.167969 174.601562 C 50.472656 177.988281 56.949219 180.992188 63.601562 183.621094 L 46.929688 189.082031 C 46.761719 189.132812 46.609375 189.214844 46.476562 189.324219 C 46.339844 189.4375 46.230469 189.570312 46.152344 189.726562 C 46.070312 189.882812 46.019531 190.046875 46.007812 190.222656 C 45.992188 190.398438 46.011719 190.566406 46.066406 190.734375 C 46.121094 190.902344 46.207031 191.050781 46.320312 191.183594 C 46.4375 191.316406 46.570312 191.421875 46.730469 191.5 C 46.886719 191.574219 47.054688 191.617188 47.226562 191.628906 C 47.402344 191.636719 47.574219 191.613281 47.738281 191.554688 L 67.429688 185.117188 C 72.492188 186.996094 77.523438 188.617188 82.453125 189.992188 C 77.894531 194.410156 63.972656 204.394531 39.34375 192.917969 C 14.964844 181.546875 5.351562 147.40625 3.507812 139.90625 C 10.484375 139.542969 40.386719 138.730469 64.160156 149.984375 C 67.449219 151.507812 70.542969 153.355469 73.441406 155.53125 C 73.488281 155.578125 73.539062 155.617188 73.589844 155.65625 C 76.304688 157.597656 78.625 159.929688 80.550781 162.65625 C 82.480469 165.382812 83.90625 168.347656 84.839844 171.554688 C 84.839844 171.765625 84.894531 171.964844 84.996094 172.148438 C 85.125 172.667969 85.234375 173.203125 85.324219 173.710938 C 85.3125 173.917969 85.34375 174.121094 85.425781 174.316406 C 86.136719 178.910156 85.730469 183.398438 84.203125 187.789062 Z M 75.757812 154.074219 L 79.347656 139.511719 C 79.390625 139.34375 79.398438 139.175781 79.371094 139.003906 C 79.347656 138.835938 79.289062 138.675781 79.199219 138.527344 C 79.109375 138.378906 78.996094 138.253906 78.859375 138.152344 C 78.71875 138.046875 78.566406 137.976562 78.398438 137.933594 C 78.230469 137.894531 78.0625 137.886719 77.890625 137.914062 C 77.722656 137.9375 77.5625 137.996094 77.414062 138.085938 C 77.265625 138.175781 77.144531 138.289062 77.039062 138.429688 C 76.9375 138.566406 76.867188 138.722656 76.828125 138.890625 L 73.5 152.386719 C 70.894531 150.570312 68.152344 148.988281 65.273438 147.640625 C 64.101562 147.085938 62.910156 146.570312 61.714844 146.078125 C 60.808594 144.914062 59.929688 143.746094 59.074219 142.578125 L 62.605469 122.007812 C 62.636719 121.835938 62.632812 121.667969 62.59375 121.5 C 62.554688 121.332031 62.488281 121.175781 62.386719 121.035156 C 62.289062 120.894531 62.167969 120.777344 62.019531 120.6875 C 61.875 120.59375 61.71875 120.53125 61.546875 120.503906 C 61.378906 120.472656 61.207031 120.480469 61.039062 120.515625 C 60.871094 120.554688 60.71875 120.625 60.578125 120.722656 C 60.4375 120.824219 60.320312 120.945312 60.230469 121.089844 C 60.136719 121.238281 60.078125 121.394531 60.046875 121.566406 L 56.949219 139.585938 C 51.203125 131.507812 46.558594 122.839844 43.007812 113.582031 C 42.949219 113.417969 42.859375 113.277344 42.742188 113.148438 C 42.625 113.023438 42.488281 112.925781 42.332031 112.851562 C 42.175781 112.78125 42.011719 112.742188 41.839844 112.738281 C 41.667969 112.730469 41.5 112.757812 41.339844 112.816406 C 41.175781 112.878906 41.035156 112.964844 40.90625 113.082031 C 40.78125 113.199219 40.683594 113.335938 40.609375 113.496094 C 40.539062 113.652344 40.5 113.816406 40.492188 113.988281 C 40.488281 114.160156 40.511719 114.328125 40.574219 114.488281 C 43.957031 123.378906 48.351562 131.738281 53.753906 139.566406 L 41.941406 133.84375 C 41.785156 133.761719 41.621094 133.714844 41.445312 133.703125 C 41.269531 133.6875 41.101562 133.710938 40.933594 133.765625 C 40.769531 133.820312 40.617188 133.90625 40.488281 134.023438 C 40.355469 134.136719 40.25 134.273438 40.175781 134.433594 C 40.097656 134.589844 40.054688 134.757812 40.046875 134.933594 C 40.039062 135.109375 40.0625 135.277344 40.125 135.441406 C 40.183594 135.609375 40.273438 135.753906 40.394531 135.882812 C 40.511719 136.011719 40.652344 136.113281 40.8125 136.183594 L 56.847656 143.949219 L 57.121094 144.3125 C 50.558594 142.035156 43.847656 140.351562 36.988281 139.257812 C 32.664062 122.335938 35.867188 103.972656 36.960938 98.730469 C 43.117188 101.3125 68.171875 112.613281 83.410156 131.445312 C 98.46875 150.027344 91.140625 163.542969 86.65625 169.035156 C 85.605469 166.066406 84.152344 163.308594 82.296875 160.761719 C 80.441406 158.214844 78.261719 155.984375 75.757812 154.074219 Z M 86.703125 188.449219 C 87.925781 184.628906 88.414062 180.71875 88.164062 176.714844 C 93.488281 181.09375 99.15625 184.957031 105.175781 188.3125 C 105.367188 188.414062 105.570312 188.464844 105.785156 188.464844 C 105.976562 188.457031 106.15625 188.40625 106.324219 188.316406 C 106.324219 188.894531 106.347656 189.464844 106.363281 190.046875 L 106.390625 191.25 C 106.390625 191.53125 106.410156 191.816406 106.417969 192.097656 C 99.761719 191.351562 93.1875 190.136719 86.703125 188.449219 Z M 160.4375 55.621094 C 161.035156 55.75 161.59375 55.976562 162.113281 56.296875 C 162.636719 56.617188 163.089844 57.011719 163.472656 57.488281 C 163.859375 57.964844 164.152344 58.492188 164.359375 59.066406 C 164.5625 59.644531 164.667969 60.238281 164.667969 60.851562 L 164.667969 75.414062 L 160.4375 75.414062 Z M 157.839844 55.496094 L 157.839844 75.414062 L 153.160156 75.414062 L 153.160156 55.496094 Z M 140.886719 32.523438 C 140.886719 32.164062 140.921875 31.804688 140.992188 31.453125 C 141.066406 31.097656 141.167969 30.753906 141.308594 30.421875 C 141.445312 30.089844 141.613281 29.773438 141.8125 29.472656 C 142.015625 29.171875 142.242188 28.894531 142.496094 28.640625 C 142.75 28.386719 143.027344 28.15625 143.328125 27.957031 C 143.625 27.757812 143.941406 27.585938 144.273438 27.449219 C 144.609375 27.3125 144.949219 27.207031 145.304688 27.136719 C 145.65625 27.066406 146.011719 27.03125 146.375 27.027344 L 150.046875 27.027344 C 150.40625 27.03125 150.761719 27.066406 151.117188 27.136719 C 151.46875 27.207031 151.8125 27.3125 152.144531 27.449219 C 152.476562 27.585938 152.792969 27.757812 153.09375 27.957031 C 153.390625 28.15625 153.667969 28.386719 153.921875 28.640625 C 154.179688 28.894531 154.40625 29.171875 154.605469 29.472656 C 154.804688 29.773438 154.976562 30.089844 155.113281 30.421875 C 155.25 30.753906 155.355469 31.097656 155.425781 31.453125 C 155.496094 31.804688 155.53125 32.164062 155.53125 32.523438 L 155.53125 52.894531 L 140.898438 52.894531 Z M 150.554688 55.496094 L 150.554688 75.414062 L 145.875 75.414062 L 145.875 55.496094 Z M 138.578125 55.496094 L 143.269531 55.496094 L 143.269531 75.414062 L 138.585938 75.414062 Z M 131.761719 60.851562 C 131.761719 60.238281 131.863281 59.644531 132.070312 59.066406 C 132.273438 58.488281 132.570312 57.960938 132.953125 57.484375 C 133.335938 57.007812 133.789062 56.609375 134.3125 56.285156 C 134.832031 55.964844 135.394531 55.738281 135.992188 55.609375 L 135.992188 75.414062 L 131.761719 75.414062 Z M 109.257812 98.800781 C 109.277344 98.117188 109.332031 97.433594 109.417969 96.757812 C 109.503906 96.078125 109.621094 95.40625 109.773438 94.738281 C 109.921875 94.070312 110.105469 93.414062 110.316406 92.765625 C 110.53125 92.113281 110.773438 91.476562 111.046875 90.851562 C 111.320312 90.222656 111.625 89.613281 111.957031 89.015625 C 112.289062 88.417969 112.648438 87.835938 113.035156 87.273438 C 113.425781 86.710938 113.839844 86.167969 114.277344 85.644531 C 114.71875 85.121094 115.179688 84.621094 115.667969 84.140625 C 116.15625 83.664062 116.664062 83.210938 117.195312 82.78125 C 117.726562 82.351562 118.277344 81.945312 118.847656 81.570312 C 119.417969 81.191406 120.003906 80.84375 120.605469 80.523438 C 121.207031 80.199219 121.824219 79.910156 122.457031 79.648438 C 123.085938 79.386719 123.726562 79.15625 124.382812 78.953125 C 125.035156 78.753906 125.695312 78.585938 126.363281 78.449219 C 127.03125 78.3125 127.707031 78.207031 128.386719 78.132812 C 129.0625 78.0625 129.746094 78.019531 130.425781 78.015625 L 130.464844 78.015625 C 130.480469 78.015625 130.496094 78.015625 130.515625 78.015625 L 165.925781 78.015625 C 165.941406 78.015625 165.957031 78.015625 165.976562 78.015625 L 166.011719 78.015625 C 166.695312 78.019531 167.378906 78.0625 168.054688 78.132812 C 168.734375 78.207031 169.410156 78.3125 170.078125 78.449219 C 170.746094 78.585938 171.40625 78.753906 172.0625 78.953125 C 172.714844 79.152344 173.355469 79.386719 173.984375 79.648438 C 174.617188 79.910156 175.234375 80.199219 175.835938 80.519531 C 176.441406 80.84375 177.027344 81.191406 177.597656 81.566406 C 178.164062 81.945312 178.714844 82.347656 179.246094 82.777344 C 179.777344 83.207031 180.289062 83.664062 180.773438 84.140625 C 181.261719 84.621094 181.726562 85.121094 182.167969 85.644531 C 182.605469 86.167969 183.019531 86.710938 183.40625 87.273438 C 183.796875 87.835938 184.15625 88.414062 184.488281 89.011719 C 184.820312 89.609375 185.125 90.222656 185.398438 90.847656 C 185.671875 91.476562 185.917969 92.113281 186.128906 92.761719 C 186.34375 93.414062 186.523438 94.070312 186.675781 94.738281 C 186.824219 95.40625 186.945312 96.078125 187.03125 96.757812 C 187.117188 97.433594 187.167969 98.117188 187.191406 98.800781 C 187.261719 100.808594 187.316406 102.816406 187.371094 104.835938 C 161.273438 102.503906 135.175781 102.503906 109.082031 104.835938 C 109.136719 102.820312 109.191406 100.808594 109.257812 98.800781 Z M 186.734375 214.800781 C 186.710938 215.433594 186.628906 216.054688 186.484375 216.671875 C 186.339844 217.289062 186.136719 217.882812 185.878906 218.460938 C 185.621094 219.039062 185.308594 219.585938 184.945312 220.101562 C 184.582031 220.617188 184.171875 221.09375 183.714844 221.53125 C 183.257812 221.96875 182.765625 222.359375 182.234375 222.703125 C 181.703125 223.042969 181.144531 223.332031 180.558594 223.566406 C 179.972656 223.800781 179.367188 223.976562 178.75 224.097656 C 178.128906 224.214844 177.503906 224.269531 176.871094 224.269531 L 119.574219 224.269531 C 118.941406 224.269531 118.316406 224.214844 117.695312 224.097656 C 117.074219 223.976562 116.472656 223.800781 115.886719 223.566406 C 115.296875 223.332031 114.738281 223.046875 114.210938 222.703125 C 113.679688 222.359375 113.183594 221.972656 112.730469 221.535156 C 112.273438 221.097656 111.863281 220.617188 111.5 220.101562 C 111.136719 219.585938 110.824219 219.039062 110.5625 218.460938 C 110.304688 217.886719 110.105469 217.289062 109.960938 216.675781 C 109.816406 216.058594 109.730469 215.433594 109.707031 214.800781 C 109.421875 207.347656 109.195312 199.960938 109.023438 192.644531 C 122.058594 193.972656 135.125 194.636719 148.226562 194.640625 C 161.328125 194.636719 174.394531 193.972656 187.429688 192.644531 C 187.242188 199.960938 187.011719 207.34375 186.734375 214.800781 Z M 187.648438 182.894531 C 187.605469 185.253906 187.546875 187.636719 187.488281 190.023438 C 161.3125 192.699219 135.136719 192.699219 108.960938 190.023438 L 108.960938 189.976562 C 108.902344 187.605469 108.847656 185.242188 108.804688 182.890625 C 108.285156 157.472656 108.347656 132.386719 108.992188 108.328125 L 109.011719 107.445312 C 135.15625 105.089844 161.296875 105.089844 187.441406 107.445312 L 187.464844 108.328125 C 188.105469 132.339844 188.167969 157.425781 187.648438 182.898438 Z M 226.65625 88.882812 C 228.179688 89 229.675781 89.273438 231.140625 89.703125 C 232.605469 90.136719 234.011719 90.714844 235.359375 91.445312 C 236.703125 92.171875 237.957031 93.03125 239.121094 94.023438 C 240.285156 95.015625 241.332031 96.117188 242.265625 97.332031 C 243.261719 98.378906 244.042969 99.566406 244.605469 100.902344 C 245.164062 102.234375 245.472656 103.625 245.523438 105.070312 C 244.988281 106.402344 244.234375 107.601562 243.265625 108.664062 C 242.296875 109.722656 241.171875 110.582031 239.890625 111.234375 C 238.609375 112.070312 237.257812 112.765625 235.832031 113.316406 C 234.40625 113.867188 232.941406 114.265625 231.429688 114.507812 C 229.921875 114.75 228.40625 114.832031 226.878906 114.753906 C 225.351562 114.675781 223.851562 114.4375 222.375 114.042969 C 214.226562 111.597656 209.609375 104.292969 207.644531 100.351562 C 217.457031 103.0625 227.449219 104.613281 237.621094 105.003906 L 237.660156 105.003906 C 237.832031 105.007812 238 104.976562 238.15625 104.914062 C 238.316406 104.847656 238.460938 104.757812 238.582031 104.636719 C 238.707031 104.519531 238.800781 104.378906 238.871094 104.21875 C 238.9375 104.0625 238.972656 103.898438 238.976562 103.726562 C 238.980469 103.554688 238.949219 103.386719 238.886719 103.226562 C 238.824219 103.066406 238.730469 102.925781 238.613281 102.800781 C 238.492188 102.675781 238.355469 102.582031 238.195312 102.511719 C 238.039062 102.441406 237.875 102.40625 237.703125 102.402344 C 227.464844 101.988281 217.414062 100.382812 207.558594 97.582031 C 210.34375 94.710938 217.527344 88.417969 226.65625 88.882812 Z M 227.742188 67.515625 C 225.085938 57.675781 221.347656 48.269531 216.519531 39.292969 C 216.433594 39.144531 216.324219 39.019531 216.191406 38.914062 C 216.058594 38.8125 215.910156 38.734375 215.746094 38.691406 C 215.582031 38.644531 215.417969 38.628906 215.246094 38.648438 C 215.078125 38.667969 214.921875 38.71875 214.773438 38.800781 C 214.621094 38.882812 214.496094 38.988281 214.386719 39.121094 C 214.28125 39.253906 214.203125 39.402344 214.152344 39.5625 C 214.105469 39.726562 214.085938 39.890625 214.101562 40.0625 C 214.117188 40.230469 214.164062 40.390625 214.242188 40.542969 C 219.082031 49.585938 222.804688 59.070312 225.40625 69 C 221.527344 68.058594 212.5 65.070312 208.226562 56.945312 C 207.550781 55.570312 207.027344 54.140625 206.652344 52.65625 C 206.277344 51.171875 206.0625 49.667969 206.003906 48.136719 C 205.945312 46.605469 206.046875 45.089844 206.308594 43.578125 C 206.570312 42.070312 206.988281 40.605469 207.558594 39.1875 C 207.949219 37.792969 208.578125 36.515625 209.4375 35.355469 C 210.300781 34.191406 211.339844 33.222656 212.558594 32.441406 C 213.03125 32.277344 213.519531 32.203125 214.019531 32.21875 C 216.402344 32.355469 218.636719 33.007812 220.722656 34.171875 C 222.089844 34.851562 223.375 35.664062 224.574219 36.613281 C 225.769531 37.5625 226.855469 38.628906 227.832031 39.804688 C 228.804688 40.984375 229.644531 42.25 230.355469 43.605469 C 231.0625 44.960938 231.625 46.375 232.035156 47.847656 C 234.070312 56.128906 230.132812 63.820312 227.757812 67.515625 Z M 267.507812 57.375 C 268.816406 58.160156 270.03125 59.078125 271.152344 60.121094 C 272.269531 61.164062 273.265625 62.316406 274.144531 63.570312 C 275.019531 64.824219 275.757812 66.15625 276.355469 67.566406 C 276.953125 68.976562 277.394531 70.433594 277.6875 71.9375 C 278.113281 73.320312 278.277344 74.734375 278.183594 76.175781 C 278.089844 77.621094 277.742188 79 277.144531 80.316406 C 276.070312 81.269531 274.859375 82.003906 273.519531 82.515625 C 272.179688 83.03125 270.789062 83.292969 269.355469 83.300781 C 267.835938 83.476562 266.316406 83.488281 264.796875 83.339844 C 263.277344 83.195312 261.789062 82.890625 260.332031 82.429688 C 258.875 81.972656 257.480469 81.363281 256.152344 80.609375 C 254.824219 79.855469 253.585938 78.972656 252.441406 77.957031 C 246.25 72.117188 245.390625 63.515625 245.394531 59.109375 C 252.957031 65.933594 261.195312 71.800781 270.113281 76.714844 C 270.265625 76.796875 270.425781 76.847656 270.597656 76.863281 C 270.769531 76.882812 270.9375 76.867188 271.101562 76.816406 C 271.265625 76.769531 271.414062 76.691406 271.550781 76.582031 C 271.683594 76.472656 271.792969 76.34375 271.875 76.191406 C 271.957031 76.039062 272.003906 75.878906 272.023438 75.707031 C 272.042969 75.535156 272.027344 75.367188 271.976562 75.203125 C 271.929688 75.035156 271.847656 74.886719 271.742188 74.753906 C 271.632812 74.617188 271.503906 74.511719 271.351562 74.429688 C 262.382812 69.464844 254.117188 63.523438 246.554688 56.597656 C 250.3125 55.257812 259.515625 52.863281 267.507812 57.359375 Z M 270.4375 40.90625 C 273.019531 31.042969 274.445312 21.015625 274.707031 10.824219 C 274.710938 10.652344 274.683594 10.488281 274.621094 10.324219 C 274.558594 10.164062 274.464844 10.023438 274.347656 9.898438 C 274.226562 9.773438 274.089844 9.675781 273.929688 9.609375 C 273.773438 9.539062 273.609375 9.503906 273.4375 9.5 C 273.265625 9.496094 273.097656 9.523438 272.9375 9.589844 C 272.777344 9.652344 272.636719 9.742188 272.511719 9.863281 C 272.386719 9.980469 272.289062 10.121094 272.222656 10.277344 C 272.152344 10.4375 272.117188 10.601562 272.113281 10.773438 C 271.828125 21.035156 270.347656 31.117188 267.679688 41.027344 C 264.777344 38.28125 258.425781 31.191406 258.75 22.011719 C 258.847656 20.484375 259.101562 18.984375 259.511719 17.507812 C 259.925781 16.03125 260.484375 14.617188 261.195312 13.261719 C 261.90625 11.90625 262.75 10.636719 263.726562 9.457031 C 264.703125 8.28125 265.789062 7.214844 266.988281 6.265625 C 267.984375 5.34375 269.097656 4.589844 270.324219 4.011719 C 271.554688 3.429688 272.839844 3.050781 274.1875 2.871094 C 274.347656 2.871094 274.507812 2.882812 274.667969 2.910156 C 276.007812 3.429688 277.214844 4.167969 278.285156 5.125 C 279.359375 6.082031 280.230469 7.199219 280.898438 8.472656 C 281.75 9.742188 282.457031 11.089844 283.027344 12.511719 C 283.59375 13.929688 284.007812 15.394531 284.269531 16.902344 C 284.53125 18.414062 284.632812 19.929688 284.574219 21.460938 C 284.515625 22.988281 284.300781 24.496094 283.925781 25.980469 C 281.582031 34.160156 274.347656 38.875 270.4375 40.890625 Z M 270.4375 40.90625 " fill-opacity="1" fill-rule="nonzero"/></g><path fill="#000000" d="M 150.09375 110.546875 C 149.992188 110.433594 149.875 110.339844 149.742188 110.269531 C 149.710938 110.242188 149.675781 110.21875 149.640625 110.199219 C 149.476562 110.125 149.304688 110.089844 149.121094 110.089844 L 149.066406 110.089844 C 148.617188 110.054688 148.257812 110.21875 147.992188 110.585938 C 147.082031 111.742188 125.664062 139.167969 125.664062 161.066406 C 125.589844 162.523438 125.664062 163.972656 125.886719 165.417969 C 126.113281 166.859375 126.484375 168.261719 127 169.628906 C 127.515625 170.996094 128.167969 172.292969 128.953125 173.523438 C 129.738281 174.75 130.640625 175.886719 131.664062 176.929688 C 132.863281 177.957031 134.144531 178.871094 135.507812 179.664062 C 136.875 180.457031 138.300781 181.121094 139.785156 181.65625 C 141.273438 182.1875 142.792969 182.582031 144.351562 182.835938 C 145.910156 183.089844 147.480469 183.203125 149.058594 183.171875 C 149.105469 183.171875 149.265625 183.171875 149.523438 183.171875 C 152.628906 183.191406 155.636719 182.664062 158.550781 181.589844 C 161.464844 180.515625 164.097656 178.960938 166.449219 176.929688 C 167.472656 175.886719 168.375 174.75 169.160156 173.523438 C 169.945312 172.292969 170.597656 170.996094 171.113281 169.628906 C 171.628906 168.261719 172 166.859375 172.222656 165.417969 C 172.449219 163.972656 172.523438 162.523438 172.445312 161.066406 C 172.445312 139.167969 151.042969 111.742188 150.121094 110.585938 C 150.128906 110.570312 150.109375 110.5625 150.09375 110.546875 Z M 147.828125 180.554688 C 145.1875 180.496094 142.636719 179.992188 140.167969 179.046875 C 137.703125 178.101562 135.464844 176.765625 133.460938 175.042969 C 132.570312 174.121094 131.78125 173.117188 131.097656 172.03125 C 130.414062 170.945312 129.851562 169.804688 129.402344 168.601562 C 128.957031 167.398438 128.636719 166.160156 128.445312 164.890625 C 128.253906 163.621094 128.195312 162.347656 128.269531 161.066406 C 128.269531 144.113281 142.289062 122.878906 147.820312 115.183594 Z M 150.425781 115.332031 C 154.695312 121.308594 158.511719 127.5625 161.863281 134.097656 L 150.425781 145.921875 Z M 150.425781 149.65625 L 163.085938 136.570312 C 165.527344 141.554688 167.40625 146.738281 168.722656 152.128906 L 150.425781 170.457031 Z M 150.425781 174.132812 L 169.339844 155.199219 C 169.671875 157.140625 169.84375 159.097656 169.859375 161.066406 C 169.933594 162.347656 169.875 163.621094 169.683594 164.890625 C 169.492188 166.160156 169.175781 167.398438 168.726562 168.601562 C 168.28125 169.804688 167.714844 170.945312 167.03125 172.03125 C 166.347656 173.117188 165.558594 174.121094 164.667969 175.042969 C 162.679688 176.757812 160.460938 178.085938 158.015625 179.03125 C 155.570312 179.976562 153.035156 180.480469 150.414062 180.550781 Z M 150.425781 174.132812 " fill-opacity="1" fill-rule="nonzero"/><path fill="#000000" d="M 139.542969 173.742188 C 139.734375 173.847656 139.9375 173.898438 140.152344 173.898438 C 140.449219 173.894531 140.714844 173.804688 140.949219 173.621094 C 141.183594 173.4375 141.335938 173.199219 141.40625 172.910156 C 141.480469 172.621094 141.457031 172.339844 141.335938 172.070312 C 141.214844 171.796875 141.023438 171.589844 140.761719 171.449219 C 138.320312 170.148438 135.515625 167.792969 135.515625 161.066406 C 135.515625 160.894531 135.484375 160.726562 135.417969 160.570312 C 135.351562 160.410156 135.257812 160.269531 135.136719 160.148438 C 135.015625 160.023438 134.875 159.929688 134.714844 159.863281 C 134.554688 159.796875 134.390625 159.765625 134.21875 159.765625 C 134.046875 159.765625 133.878906 159.796875 133.722656 159.863281 C 133.5625 159.929688 133.421875 160.023438 133.300781 160.148438 C 133.179688 160.269531 133.085938 160.410156 133.019531 160.570312 C 132.953125 160.726562 132.917969 160.894531 132.917969 161.066406 C 132.917969 170.21875 137.90625 172.871094 139.542969 173.742188 Z M 139.542969 173.742188 " fill-opacity="1" fill-rule="nonzero"/></svg>